<svg xmlns="http://www.w3.org/2000/svg" viewBox="0 0 200 150" width="100%" height="100%">
  <path d="M 68.3,75 C 68.3,58.8 81.4,45.7 97.6,45.7 C 108.2,45.7 117.5,51.3 122.7,59.8 L 138.8,50.5 C 130.3,36.5 115,27.1 97.6,27.1 C 71.1,27.1 49.7,48.5 49.7,75 C 49.7,101.5 71.1,122.9 97.6,122.9 C 115,122.9 130.3,113.5 138.8,99.5 L 122.7,90.2 C 117.5,98.7 108.2,104.3 97.6,104.3 C 81.4,104.3 68.3,91.2 68.3,75 Z" fill="#000000"/>
  <path d="M 131.7,75 C 131.7,91.2 118.6,104.3 102.4,104.3 C 91.8,104.3 82.5,98.7 77.3,90.2 L 61.2,99.5 C 69.7,113.5 85,122.9 102.4,122.9 C 128.9,122.9 150.3,101.5 150.3,75 C 150.3,48.5 128.9,27.1 102.4,27.1 C 85,27.1 69.7,36.5 61.2,50.5 L 77.3,59.8 C 82.5,51.3 91.8,45.7 102.4,45.7 C 118.6,45.7 131.7,58.8 131.7,75 Z" fill="#000000"/>
</svg>
